# xmcd
#
# Track frame offsets: 
#        150
#        15708
#        32289
#        50206
#        66059
#        89483
#        110452
#        132596
#        153760
#        172664
#        189814
#        206860
#        222734
#
# Disc length: 3128 seconds
#
# Revision: 2
# Processed by: cddbd v1.5.1PL2 Copyright (c) Steve Scherf et al.
# Submitted via: ExactAudioCopy v0.95b3
#
DISCID=b20c360d
DTITLE=Morrow, Cory - Outside the Lines
DYEAR=2002
DGENRE=Country
TTITLE0=Outside the Lines
TTITLE1=(Love Me) Like You Used To Do
TTITLE2=In Spite of Spite
TTITLE3=Friend of the Devil
TTITLE4=Take Me Away
TTITLE5=More than Perfect
TTITLE6=Straight to Hell
TTITLE7=Drinkin' Alone
TTITLE8=Dance by the Rio Grande
TTITLE9=Misty Shade of Blue
TTITLE10=All Over Again
TTITLE11=Better than Being in Love with You
TTITLE12=Sunday Drivin'
EXTD=
EXTT0=
EXTT1=
EXTT2=
EXTT3=
EXTT4=
EXTT5=
EXTT6=
EXTT7=
EXTT8=
EXTT9=
EXTT10=
EXTT11=
EXTT12=
PLAYORDER=
